<svg xmlns="http://www.w3.org/2000/svg" viewBox="0 0 320 240">
  <defs>
    <linearGradient id="curlyGrad" x1="0" x2="1" y1="0" y2="1">
      <stop offset="0%" stop-color="#9333ea"/>
      <stop offset="100%" stop-color="#ec4899"/>
    </linearGradient>
  </defs>
  <rect width="320" height="240" rx="24" fill="url(#curlyGrad)"/>
  <path d="M90 90c20-40 50-50 80-40s40 30 40 50c0 25-10 35-20 45s-20 10-30 0-20-20-30-20-20 10-30 0-15-18-10-35Z" fill="#fff" opacity="0.85"/>
  <path d="M120 90c10-20 18-25 28-22s17 12 18 24" fill="none" stroke="#fff" stroke-width="10" stroke-linecap="round"/>
  <path d="M132 130c16 14 32 16 48 6" fill="none" stroke="#fff" stroke-width="10" stroke-linecap="round"/>
  <text x="160" y="220" text-anchor="middle" fill="#fff" font-size="24" font-family="Arial, sans-serif" font-weight="700">Curly</text>
</svg>