<svg xmlns="http://www.w3.org/2000/svg" viewBox="0 0 320 240">
  <defs>
    <linearGradient id="grad" x1="0" x2="1" y1="0" y2="1">
      <stop offset="0%" stop-color="#312f81"/>
      <stop offset="100%" stop-color="#0ea5e9"/>
    </linearGradient>
  </defs>
  <rect width="320" height="240" rx="24" fill="url(#grad)"/>
  <path d="M100 80c0-12 10-22 22-22h76c12 0 22 10 22 22v30c0 12-10 22-22 22H122c-12 0-22-10-22-22V80Z" fill="#fff" opacity="0.15"/>
  <path d="M118 98h84v18H118z" fill="#fff" opacity="0.6"/>
  <path d="M116 138c0 12 12 24 28 24s28-12 28-24" fill="none" stroke="#fff" stroke-width="12" stroke-linecap="round"/>
  <circle cx="90" cy="100" r="18" fill="#fff" opacity="0.8"/>
  <circle cx="230" cy="100" r="18" fill="#fff" opacity="0.8"/>
  <text x="160" y="220" text-anchor="middle" fill="#fff" font-size="28" font-family="Arial, sans-serif" font-weight="700">Haircut</text>
</svg>